Coordinates
version=1
nRows=14
nColumns=46
inDegrees=yes

Units are S.I. units (second, meters, Newtons, ...)
Angles are in degrees.

endheader
time	pelvis_tilt	pelvis_list	pelvis_rotation	pelvis_tx	pelvis_ty	pelvis_tz	bb_angle	bb_tx	bb_ty	bb_tz	hip_flexion_r	hip_adduction_r	hip_rotation_r	knee_angle_r	knee_angle_r_beta	ankle_angle_r	subtalar_angle_r	mtp_angle_r	crank_angle_r	hip_flexion_l	hip_adduction_l	hip_rotation_l	knee_angle_l	knee_angle_l_beta	ankle_angle_l	subtalar_angle_l	mtp_angle_l	crank_angle_l	lumbar_extension	lumbar_bending	lumbar_rotation	arm_flex_r	arm_add_r	arm_rot_r	elbow_flex_r	pro_sup_r	wrist_flex_r	wrist_dev_r	arm_flex_l	arm_add_l	arm_rot_l	elbow_flex_l	pro_sup_l	wrist_flex_l	wrist_dev_l
      0.00500000	    -12.24099307	      2.04808975	      0.57944910	      0.11437336	      1.14837476	     -0.24492768	      0.00000000	      0.50000000	      0.00000000	      0.25000000	     51.64529361	     -6.67316459	     -1.97735710	     74.53797192	      1.30093303	      9.03655404	     -7.51176776	      0.00000000	      0.00000000	     77.43919981	     -5.59384014	     -1.89916739	     83.74368381	      1.46160301	     17.36978484	      1.67174349	      0.00000000	      0.00000000	    -53.88706772	      0.55280327	      1.36462392	     89.78857110	     -2.54075602	     25.01630484	     29.66833751	     21.57714525	      0.00000000	      0.00000000	     89.75227469	      2.94744584	     24.97813676	     28.21959313	     21.17134423	      0.00000000	      0.00000000
      0.01000000	    -12.25672215	      2.07126687	      0.58153438	      0.11409981	      1.14817271	     -0.24494862	      0.00000000	      0.50000000	      0.00000000	      0.25000000	     51.69348100	     -6.73148521	     -2.02696561	     74.53858210	      1.30094368	      9.00690959	     -7.47516911	      0.00000000	      0.00000000	     77.51016145	     -5.57570140	     -1.90307786	     83.79310902	      1.46246564	     17.33492769	      1.66910078	      0.00000000	      0.00000000	    -53.85709274	      0.53334557	      1.36839531	     89.78779836	     -2.50397849	     24.80215126	     30.17257349	     19.14500922	      0.00000000	      0.00000000	     89.75205336	      3.05553870	     24.63930094	     28.74835831	     18.48918113	      0.00000000	      0.00000000
      0.01500000	    -12.20036115	      2.11470229	      0.59369480	      0.11400056	      1.14829454	     -0.24493357	      0.00000000	      0.50000000	      0.00000000	      0.25000000	     51.63452093	     -6.77916983	     -2.00866010	     74.51318613	      1.30050043	      9.00730488	     -7.42683090	      0.00000000	      0.00000000	     77.46137489	     -5.54439933	     -1.93338715	     83.81251727	      1.46280438	     17.31761122	      1.64781124	      0.00000000	      0.00000000	    -53.89767850	      0.49549156	      1.32589208	     89.78671776	     -2.45753004	     24.65195377	     30.10503493	     19.19105013	      0.00000000	      0.00000000	     89.75539708	      3.08134720	     24.62495696	     28.78027389	     18.55894813	      0.00000000	      0.00000000
      0.02000000	    -11.97092950	      2.04925268	      0.62096112	      0.11400879	      1.14898879	     -0.24486906	      0.00000000	      0.50000000	      0.00000000	      0.25000000	     51.29132480	     -6.70700137	     -2.05057538	     74.36224658	      1.29786604	      9.01578156	     -7.53705403	      0.00000000	      0.00000000	     77.20981232	     -5.59371373	     -1.84575850	     83.82778454	      1.46307084	     17.46224012	      1.94188510	      0.00000000	      0.00000000	    -54.21978305	      0.53461174	      1.39303912	     89.78627429	     -2.31965636	     23.93215723	     30.32434022	     20.41916719	      0.00000000	      0.00000000	     89.75334314	      3.30367956	     23.89179977	     28.87075513	     19.79600994	      0.00000000	      0.00000000
      0.02500000	    -12.12466606	      2.03832299	      0.60281330	      0.11385381	      1.14828793	     -0.24473865	      0.00000000	      0.50000000	      0.00000000	      0.25000000	     51.51306470	     -6.68166076	     -2.02228047	     74.39942696	      1.29851496	      8.85498406	     -7.54321724	      0.00000000	      0.00000000	     77.46089037	     -5.63050754	     -1.82133067	     83.93376726	      1.46492059	     17.40103850	      1.95278869	      0.00000000	      0.00000000	    -53.96609895	      0.52507692	      1.38349303	     89.78727605	     -2.19622653	     23.63760228	     29.66368871	     21.50853999	      0.00000000	      0.00000000	     89.75369493	      3.36915514	     23.48976170	     28.34311788	     20.93198852	      0.00000000	      0.00000000
      0.03000000	    -11.88018988	      2.08639249	      0.64462108	      0.11380358	      1.14901373	     -0.24469726	      0.00000000	      0.50000000	      0.00000000	      0.25000000	     51.20193545	     -6.73390725	     -2.03521586	     74.30254097	      1.29682398	      8.85638058	     -7.59857725	      0.00000000	      0.00000000	     77.18534942	     -5.60762962	     -1.91834700	     83.92498254	      1.46476727	     17.47180871	      1.97082466	      0.00000000	      0.00000000	    -54.31183735	      0.50184250	      1.32865953	     89.78659389	     -2.15554946	     23.01975408	     29.84486556	     22.58427544	      0.00000000	      0.00000000	     89.75425144	      3.48536269	     22.86575737	     28.49101420	     22.02703345	      0.00000000	      0.00000000
      0.03500000	    -11.99229664	      2.06080027	      0.65374683	      0.11361241	      1.14862705	     -0.24468063	      0.00000000	      0.50000000	      0.00000000	      0.25000000	     51.35515279	     -6.70555144	     -2.03501632	     74.31781905	      1.29709064	      8.79899258	     -7.59783534	      0.00000000	      0.00000000	     77.38225926	     -5.60318770	     -1.85891437	     83.99088491	      1.46591748	     17.36865327	      1.94760672	      0.00000000	      0.00000000	    -54.07797879	      0.49410730	      1.33366268	     89.78884780	     -2.40808580	     24.68902754	     30.04985746	     19.00273749	      0.00000000	      0.00000000	     89.75596839	      3.32066639	     24.14277407	     28.87242745	     18.29164992	      0.00000000	      0.00000000
      0.04000000	    -11.96228309	      2.07920182	      0.67530731	      0.11345982	      1.14863033	     -0.24465309	      0.00000000	      0.50000000	      0.00000000	      0.25000000	     51.32607418	     -6.73058676	     -2.03521727	     74.28673773	      1.29654816	      8.74932777	     -7.62165594	      0.00000000	      0.00000000	     77.39007326	     -5.57764880	     -1.86409246	     84.03708505	      1.46672383	     17.34637626	      1.91874292	      0.00000000	      0.00000000	    -54.09876315	      0.47737961	      1.29465774	     89.78960861	     -2.38442198	     24.70727435	     30.07121877	     18.94622435	      0.00000000	      0.00000000	     89.75568389	      3.34820139	     24.08725299	     28.91740114	     18.22920165	      0.00000000	      0.00000000
      0.04500000	    -11.93237271	      2.08022321	      0.68595769	      0.11332046	      1.14864196	     -0.24459594	      0.00000000	      0.50000000	      0.00000000	      0.25000000	     51.28893751	     -6.72931193	     -2.04423799	     74.24283079	      1.29578184	      8.71224305	     -7.64455531	      0.00000000	      0.00000000	     77.39993433	     -5.58155456	     -1.86540074	     84.09013367	      1.46764970	     17.35465136	      1.96083356	      0.00000000	      0.00000000	    -54.11995082	      0.46392641	      1.27590406	     89.78924948	     -2.31867214	     24.60804878	     30.02618082	     19.00878225	      0.00000000	      0.00000000	     89.75664911	      3.36314130	     24.14519431	     28.95361697	     18.25583960	      0.00000000	      0.00000000
      0.05000000	    -11.93645059	      2.11427397	      0.71375106	      0.11313567	      1.14863972	     -0.24462865	      0.00000000	      0.50000000	      0.00000000	      0.25000000	     51.30306751	     -6.78239065	     -2.05025001	     74.20780939	      1.29517060	      8.60006862	     -7.73274838	      0.00000000	      0.00000000	     77.43308951	     -5.52963213	     -1.87437614	     84.11620484	      1.46810473	     17.35030745	      1.97711710	      0.00000000	      0.00000000	    -54.15132356	      0.44832257	      1.24468914	     89.78645781	     -1.64962249	     21.47382656	     29.09301165	     25.09238932	      0.00000000	      0.00000000	     89.75589788	      4.01872108	     21.26614958	     27.91455102	     24.57725979	      0.00000000	      0.00000000
      0.05500000	    -11.87788324	      2.16655389	      0.70406539	      0.11293376	      1.14874855	     -0.24451695	      0.00000000	      0.50000000	      0.00000000	      0.25000000	     51.25296587	     -6.80684136	     -2.00599650	     74.16837506	      1.29448235	      8.56121883	     -7.64025172	      0.00000000	      0.00000000	     77.39725451	     -5.52999670	     -1.94798102	     84.14877040	      1.46867310	     17.30098917	      1.85848056	      0.00000000	      0.00000000	    -54.14355392	      0.36454939	      1.14946719	     89.79223509	     -2.32926134	     25.05285551	     29.49495836	     20.94029861	      0.00000000	      0.00000000	     89.75757392	      3.30714766	     24.43734340	     28.60412210	     20.32062421	      0.00000000	      0.00000000
      0.06000000	    -11.94295201	      2.11694743	      0.74671415	      0.11276341	      1.14852390	     -0.24459607	      0.00000000	      0.50000000	      0.00000000	      0.25000000	     51.31862733	     -6.79730090	     -2.06645104	     74.13070693	      1.29382491	      8.47173696	     -7.75856975	      0.00000000	      0.00000000	     77.54419563	     -5.50032396	     -1.84745918	     84.22179197	      1.46994757	     17.28672194	      1.87245091	      0.00000000	      0.00000000	    -54.10055426	      0.45688436	      1.22845628	     89.78691828	     -1.51448926	     21.04315288	     28.59486162	     27.80452250	      0.00000000	      0.00000000	     89.75580717	      4.13038646	     20.77870678	     27.35789900	     27.44691394	      0.00000000	      0.00000000
      0.06500000	    -11.78173167	      2.12944900	      0.75421089	      0.11263157	      1.14887065	     -0.24452741	      0.00000000	      0.50000000	      0.00000000	      0.25000000	     51.11289286	     -6.80993249	     -2.07190490	     74.05551948	      1.29251264	      8.50425615	     -7.69317391	      0.00000000	      0.00000000	     77.40345016	     -5.50554799	     -1.87049161	     84.27989513	      1.47096166	     17.29529548	      1.89500053	      0.00000000	      0.00000000	    -54.23999269	      0.38879631	      1.15299890	     89.79150404	     -2.21850847	     24.55300129	     29.93690349	     18.97556366	      0.00000000	      0.00000000	     89.75826702	      3.45824857	     24.15032540	     29.06055873	     18.29807353	      0.00000000	      0.00000000
      0.07000000	    -11.73148563	      2.11301729	      0.78919306	      0.11247432	      1.14899494	     -0.24450888	      0.00000000	      0.50000000	      0.00000000	      0.25000000	     51.03105533	     -6.81327050	     -2.11134789	     73.98654952	      1.29130889	      8.47178850	     -7.70348487	      0.00000000	      0.00000000	     77.40239449	     -5.48839388	     -1.82228175	     84.34956217	      1.47217758	     17.31773640	      2.08294296	      0.00000000	      0.00000000	    -54.32134520	      0.41610165	      1.18258616	     89.78946721	     -1.80085630	     22.34692392	     29.39953594	     23.06277483	      0.00000000	      0.00000000	     89.75792254	      3.90564042	     22.18000275	     28.42648033	     22.65272203	      0.00000000	      0.00000000
